Coordinates
version=1
nRows=6
nColumns=36
inDegrees=yes

Units are S.I. units (second, meters, Newtons, ...)
If the header above contains a line with 'inDegrees', this indicates whether rotational values are in degrees (yes) or radians (no).

endheader
time	pelvis_tilt	pelvis_list	pelvis_rotation	pelvis_tx	pelvis_ty	pelvis_tz	hip_flexion_r	hip_adduction_r	hip_rotation_r	knee_angle_r	knee_angle_r_beta	ankle_angle_r	subtalar_angle_r	mtp_angle_r	hip_flexion_l	hip_adduction_l	hip_rotation_l	knee_angle_l	knee_angle_l_beta	ankle_angle_l	subtalar_angle_l	mtp_angle_l	lumbar_extension	lumbar_bending	lumbar_rotation	arm_flex_r	arm_add_r	arm_rot_r	elbow_flex_r	pro_sup_r	arm_flex_l	arm_add_l	arm_rot_l	elbow_flex_l	pro_sup_l
      0.46000000	      0.00827889	     -0.10205586	      2.36229489	      0.26118563	      1.16009723	     -0.23731065	     -0.21655346	      4.11931445	     -2.49246715	      9.16312919	      0.15992677	      8.85473713	     -8.79480170	     -5.64991015	     25.43499324	     -1.31764645	     -1.92610279	     31.63464071	      0.55212864	      1.07354026	     -6.91751922	     -5.64991015	    -12.48532089	      4.19560555	     -1.23368361	     -9.80671010	     -8.76623682	    -12.12239602	     46.84281278	    105.28010944	     -7.02677911	     -6.34527654	     -2.18562837	     44.24644491	    106.92975425
      0.47000000	      0.29567857	     -0.04341811	      2.25925815	      0.27045389	      1.15972958	     -0.23651063	     -1.25781733	      4.14371607	     -2.23572293	      8.78254315	      0.15328429	      9.35152088	     -8.44051145	     -5.71167129	     25.37685122	     -1.22053048	     -2.26480217	     29.94578409	      0.52265253	      1.49708638	     -4.82599014	     -5.71167129	    -12.83135701	      3.84266405	     -1.26589183	     -9.69737495	     -8.79754584	    -11.84974655	     46.66728724	    105.41899976	     -6.81345215	     -6.21279342	     -3.07046039	     44.51176078	    106.70435436
      0.48000000	      0.13692966	     -0.21032066	      2.21627127	      0.27952114	      1.15856931	     -0.23583852	     -1.69907606	      4.38449474	     -2.21060945	      8.57123645	      0.14959630	      9.60845107	     -8.42701108	     -5.72134172	     25.86763747	     -1.22871335	     -2.27493324	     28.37836558	      0.49529592	      1.32998417	     -4.08724210	     -5.72134172	    -12.66677337	      3.76963124	     -1.22766519	     -9.77241895	     -8.83465268	    -11.78363273	     46.62473890	    105.44447738	     -6.59455357	     -6.20431586	     -3.23513661	     44.55416321	    106.67131791
      0.49000000	      0.29616765	     -0.15690787	      2.11247540	      0.28887193	      1.15788463	     -0.23508658	     -2.56085741	      4.39759844	     -2.06744178	      8.27642506	      0.14445087	     10.08890703	     -8.24410574	     -5.75247233	     25.84247332	     -1.09337212	     -2.56703980	     26.62831532	      0.46475178	      1.40402205	     -2.58723610	     -5.75247233	    -12.84756054	      3.41045394	     -1.22033220	     -9.75678442	     -8.85660321	    -11.58744016	     46.43452973	    105.53153977	     -6.28221096	     -6.16909406	     -3.65896221	     44.41925324	    106.56357200
      0.50000000	      0.19237372	     -0.26054869	      2.05045122	      0.29810002	      1.15672317	     -0.23437182	     -3.08619170	      4.57204889	     -1.97995404	      8.04436176	      0.14040060	     10.38199388	     -8.11481970	     -5.76963271	     26.11694241	     -1.04337453	     -2.57074136	     24.94320179	      0.43534100	      1.35795334	     -1.50437805	     -5.76963271	    -12.75447296	      3.22543494	     -1.18553452	     -9.84509033	     -8.88785684	    -11.44512110	     46.35883436	    105.59493027	     -6.05536375	     -6.16094314	     -3.87039024	     44.42593993	    106.52296300
      0.51000000	      0.33901965	     -0.29715395	      1.92702842	      0.30756336	      1.15584493	     -0.23355418	     -3.90637116	      4.67718092	     -1.92776956	      7.79013745	      0.13596355	     10.81693610	     -7.82597876	     -5.81238560	     26.03996267	     -1.01817279	     -2.91493906	     23.24240749	      0.40565654	      1.59601781	     -0.01203856	     -5.81238560	    -12.94081071	      2.93937941	     -1.18046931	     -9.86069625	     -8.96924633	    -11.15786080	     46.14981162	    105.76756703	     -5.81778471	     -6.16040689	     -4.21496240	     44.34779776	    106.45298825
